<svg width="22" height="22" viewBox="0 0 22 22" fill="none" xmlns="http://www.w3.org/2000/svg">
<path d="M11 13.75C11.7293 13.75 12.4288 13.4603 12.9445 12.9445C13.4603 12.4288 13.75 11.7293 13.75 11C13.75 10.2707 13.4603 9.57118 12.9445 9.05546C12.4288 8.53973 11.7293 8.25 11 8.25C10.2707 8.25 9.57118 8.53973 9.05546 9.05546C8.53973 9.57118 8.25 10.2707 8.25 11C8.25 11.7293 8.53973 12.4288 9.05546 12.9445C9.57118 13.4603 10.2707 13.75 11 13.75Z" stroke="white" stroke-width="1.5" stroke-miterlimit="10" stroke-linecap="round" stroke-linejoin="round"/>
<path d="M1.83325 11.8067V10.1933C1.83325 9.24 2.61242 8.45166 3.57492 8.45166C5.23409 8.45166 5.91242 7.27833 5.07825 5.83916C4.60159 5.01416 4.88575 3.94166 5.71992 3.465L7.30575 2.5575C8.02992 2.12666 8.96492 2.38333 9.39575 3.1075L9.49659 3.28166C10.3216 4.72083 11.6783 4.72083 12.5124 3.28166L12.6133 3.1075C13.0441 2.38333 13.9791 2.12666 14.7033 2.5575L16.2891 3.465C17.1233 3.94166 17.4074 5.01416 16.9308 5.83916C16.0966 7.27833 16.7749 8.45166 18.4341 8.45166C19.3874 8.45166 20.1758 9.23083 20.1758 10.1933V11.8067C20.1758 12.76 19.3966 13.5483 18.4341 13.5483C16.7749 13.5483 16.0966 14.7217 16.9308 16.1608C17.4074 16.995 17.1233 18.0583 16.2891 18.535L14.7033 19.4425C13.9791 19.8733 13.0441 19.6167 12.6133 18.8925L12.5124 18.7183C11.6874 17.2792 10.3308 17.2792 9.49659 18.7183L9.39575 18.8925C8.96492 19.6167 8.02992 19.8733 7.30575 19.4425L5.71992 18.535C5.32034 18.3049 5.02837 17.9257 4.90807 17.4806C4.78777 17.0355 4.84897 16.5609 5.07825 16.1608C5.91242 14.7217 5.23409 13.5483 3.57492 13.5483C2.61242 13.5483 1.83325 12.76 1.83325 11.8067Z" stroke="white" stroke-width="1.5" stroke-miterlimit="10" stroke-linecap="round" stroke-linejoin="round"/>
</svg>
