<svg width="24" height="26" viewBox="0 0 24 26" fill="none" xmlns="http://www.w3.org/2000/svg">
<path d="M12.2449 5.02668C14.5442 5.02668 16.0953 6.08112 16.9796 6.96224L20.4354 3.38001C18.3129 1.28556 15.551 0 12.2449 0C7.45581 0 3.31976 2.91778 1.30615 7.16446L5.26533 10.4289C6.25853 7.29446 9.00683 5.02668 12.2449 5.02668Z" fill="#EA4335"/>
<path d="M24 13.2889C24 12.22 23.9184 11.44 23.7415 10.6311H12.2449V15.4556H18.9932C18.8571 16.6545 18.1225 18.46 16.4898 19.6734L20.3537 22.8511C22.6667 20.5834 24 17.2467 24 13.2889Z" fill="#4285F4"/>
<path d="M5.27891 15.5711C5.02041 14.7622 4.87075 13.8956 4.87075 13C4.87075 12.1044 5.02044 11.2378 5.26533 10.4289L1.30615 7.16446C0.47622 8.92668 0 10.9055 0 13C0 15.0944 0.47619 17.0733 1.30612 18.8356L5.27891 15.5711Z" fill="#FBBC05"/>
<path d="M12.2449 26C15.551 26 18.3265 24.8445 20.3537 22.8511L16.4898 19.6734C15.4558 20.4389 14.068 20.9733 12.2449 20.9733C9.00677 20.9733 6.2585 18.7056 5.27891 15.5711L1.3197 18.8355C3.33331 23.0822 7.45575 26 12.2449 26Z" fill="#34A853"/>
</svg>
