<svg width="186" height="205" viewBox="0 0 186 205" fill="none" xmlns="http://www.w3.org/2000/svg">
<path d="M176.902 183.374H139.499L148.474 203.224C148.959 204.298 150.029 204.989 151.207 204.989H184.494C185.209 204.989 185.693 204.26 185.416 203.601L176.902 183.374Z" fill="#219EBC"/>
<path d="M36.1537 128.674H67.7294H68.3552C69.6012 128.674 70.7137 127.912 71.1604 126.749C76.246 113.506 85.879 89.8663 88.9581 87.8089C91.8398 85.8834 94.2224 86.6738 95.3434 87.506C95.592 87.6905 95.7649 87.9401 95.9064 88.2154C103.273 102.546 117.6 131.344 117.6 135.091C117.6 138.873 115.129 140.044 113.893 140.157C35.1568 141.719 6.03875 181.067 0.521169 202.656C0.211049 203.87 1.15797 205 2.41044 205H32.3424C32.7528 205 33.1181 204.751 33.2818 204.375C46.0751 174.953 130.58 170.901 171.514 172.578L95.3737 5.92936C94.3088 3.59866 91.0008 3.58962 89.9232 5.91446L34.3392 125.833C33.7248 127.158 34.6928 128.674 36.1537 128.674Z" fill="#37CBFA" fill-opacity="0.6"/>
</svg>
