<svg width="27" height="22" viewBox="0 0 27 22" fill="none" xmlns="http://www.w3.org/2000/svg">
<path d="M25.9944 2.91929C25.1563 3.27999 24.2751 3.53117 23.3728 3.6666C23.7947 3.59428 24.4154 2.83491 24.6625 2.52755C25.0379 2.06392 25.324 1.53465 25.5063 0.966618C25.5063 0.924431 25.5484 0.864164 25.5063 0.83403C25.485 0.822425 25.4612 0.816344 25.437 0.816344C25.4127 0.816344 25.3889 0.822425 25.3676 0.83403C24.3878 1.36464 23.345 1.76961 22.2639 2.03938C22.2262 2.05089 22.1861 2.05192 22.1479 2.04237C22.1096 2.03281 22.0747 2.01303 22.0469 1.98514C21.9627 1.88493 21.8722 1.79031 21.7757 1.70188C21.3347 1.3068 20.8344 0.983438 20.2931 0.743629C19.5624 0.443844 18.7731 0.314014 17.9849 0.363943C17.22 0.412246 16.4733 0.617391 15.7911 0.966618C15.1194 1.33481 14.529 1.835 14.0554 2.43715C13.5573 3.05691 13.1977 3.77616 13.0007 4.54651C12.8384 5.27927 12.8199 6.03662 12.9465 6.77641C12.9465 6.90297 12.9465 6.92105 12.838 6.90297C8.54095 6.27016 5.0153 4.74539 2.13451 1.47287C2.00795 1.32822 1.94166 1.32822 1.8392 1.47287C0.585638 3.37732 1.19434 6.3907 2.7613 7.8793C2.97223 8.07819 3.1892 8.27104 3.41821 8.45185C2.69977 8.40084 1.99888 8.20615 1.35706 7.8793C1.23653 7.80096 1.17023 7.84314 1.16421 7.98779C1.14712 8.18831 1.14712 8.38993 1.16421 8.59046C1.28996 9.55148 1.66869 10.4619 2.26168 11.2285C2.85466 11.9952 3.64063 12.5906 4.53919 12.9538C4.75823 13.0477 4.98648 13.1184 5.22021 13.1648C4.55511 13.2957 3.87297 13.3161 3.20125 13.225C3.05661 13.1949 3.00237 13.2732 3.05661 13.4119C3.94254 15.8226 5.86507 16.5578 7.27533 16.9676C7.46819 16.9978 7.66105 16.9978 7.87801 17.046C7.87801 17.046 7.87801 17.046 7.84185 17.0822C7.426 17.8415 5.74454 18.3538 4.97311 18.619C3.56507 19.1247 2.06383 19.3181 0.573585 19.1855C0.338542 19.1493 0.284301 19.1554 0.224033 19.1855C0.163766 19.2156 0.224033 19.2819 0.290328 19.3422C0.591665 19.5411 0.893003 19.7158 1.20639 19.8846C2.13936 20.3935 3.1257 20.7977 4.14745 21.0899C9.43894 22.5484 15.3934 21.4757 19.365 17.5281C22.4869 14.4304 23.5837 10.1574 23.5837 5.87842C23.5837 5.7157 23.7826 5.61927 23.8971 5.5349C24.6869 4.9195 25.3832 4.19273 25.9643 3.37732C26.0649 3.25577 26.1165 3.10101 26.1089 2.94339C26.1089 2.85299 26.1089 2.87107 25.9944 2.91929Z" fill="#33CCFF"/>
</svg>
